<?xml version="1.0" encoding="utf-8"?>
<!-- Generator: Adobe Illustrator 19.0.0, SVG Export Plug-In . SVG Version: 6.00 Build 0)  -->
<svg version="1.1" id="Layer_1" xmlns="http://www.w3.org/2000/svg" xmlns:xlink="http://www.w3.org/1999/xlink" x="0px" y="0px"
	 viewBox="0 0 900 700" style="enable-background:new 0 0 900 700;" xml:space="preserve">
<style type="text/css">
	.st0{fill:#591F1A;}
	.st1{fill:#24232A;}
	.st2{fill:#18191D;}
	.st3{fill:#CAD2D6;}
	.st4{fill:#543C30;}
	.st5{fill:#442421;}
	.st6{fill:#342B2D;}
	.st7{fill:#919CA4;}
	.st8{fill:#A88D85;}
	.st9{fill:#AC7C72;}
	.st10{fill:#554F6C;}
	.st11{fill:#30333D;}
	.st12{fill:#FCEEDE;}
	.st13{opacity:0.5;fill:#DDB4A4;}
	.st14{fill:#DDE6BA;stroke:#67B958;stroke-width:2;stroke-miterlimit:10;}
	.st15{fill:#FCEEDE;stroke:#67B957;stroke-width:2;stroke-miterlimit:10;}
	.st16{fill:#1E2035;}
	.st17{fill:#DCCFC6;stroke:#C9C0B9;stroke-miterlimit:10;}
	.st18{fill:#CFBFAD;stroke:#A88D85;stroke-width:0.5;stroke-miterlimit:10;}
	.st19{fill:#B28BB1;}
	.st20{fill:#9F7F61;}
	.st21{fill:#9B8484;}
	.st22{fill:#191B2E;}
	.st23{fill:#222235;}
	.st24{fill:#C5B7A6;}
	.st25{fill:#595991;}
	.st26{fill:#A89B91;}
	.st27{fill:#27273E;}
	.st28{fill:#3A927B;}
	.st29{fill:#A88D85;stroke:#9F7F61;stroke-width:0.8;stroke-miterlimit:10;}
	.st30{fill:#96765A;}
	.st31{fill:#CCC5C2;stroke:#D9D1D0;stroke-miterlimit:10;}
	.st32{fill:#236467;}
	.st33{fill:#D6AC9F;}
	.st34{fill:#AA4671;stroke:#9F4470;stroke-miterlimit:10;}
	.st35{fill:#44606E;}
	.st36{fill:#589F8C;}
	.st37{fill:#CFBFAD;}
	.st38{fill:#E3DAD7;stroke:#D9D1D0;stroke-miterlimit:10;}
	.st39{fill:#5E5977;}
	.st40{fill:#7B838A;}
	.st41{fill:#141519;}
	.st42{fill:#B39D9E;}
	.st43{fill:#BDAD9D;}
	.st44{fill:#030303;}
	.st45{fill:#896DB0;}
	.st46{fill:#575D69;}
	.st47{fill:#28282F;}
	.st48{fill:#476574;}
	.st49{fill:#5A8A98;}
	.st50{fill:#DDB4A4;}
	.st51{fill:#C5A49A;}
	.st52{fill:#377E6A;}
	.st53{fill:#1B2E2A;}
	.st54{fill:#AA856A;}
	.st55{fill:#F4E2CD;}
	.st56{fill:#D3A98C;}
	.st57{fill:#CEAF8E;}
	.st58{fill:#C0956C;}
	.st59{fill:#F2D19E;}
	.st60{fill:#836449;}
	.st61{fill:#3D1F1D;}
	.st62{fill:#755A50;}
	.st63{fill:#33A09E;}
	.st64{fill:#A1D9DA;}
	.st65{fill:#2D8984;stroke:#266D67;stroke-miterlimit:10;}
	.st66{fill:#9BCCCC;}
	.st67{fill:#2F8E89;}
	.st68{fill:#BFE6EE;}
	.st69{fill:#323843;}
	.st70{fill:#CFD7AD;}
	.st71{fill:#80B196;}
	.st72{fill:#55C4C3;}
	.st73{fill:#76CDD5;}
	.st74{fill:#C3B791;}
	.st75{fill:#A6DBD5;}
	.st76{fill:#317077;}
	.st77{fill:#80CECC;}
	.st78{fill:#7B9E97;}
	.st79{fill:#CECCCC;}
	.st80{fill:#F0E9E8;}
	.st81{fill:#DAEFEE;stroke:#81CFD3;stroke-width:0.8;stroke-miterlimit:10;}
	.st82{fill:#AA8465;}
</style>
<g id="Xiao">
	<g id="LeftArm">
		<path id="XMLID_254_" class="st0" d="M175.2,511.2c0,0-26.4,46-38.6,63.7C124.4,592.7,83.9,661,83.9,661s-21.8,36.8-21.8,39.1
			l80.6,0l72.8-139.4L175.2,511.2z"/>
		<path id="XMLID_295_" class="st0" d="M228.2,489.2l-8.9-2.8l-1.7-8.9c0,0,3.3-3,5.3-0.2C225,480,228.2,489.2,228.2,489.2z"/>
		<path id="XMLID_296_" class="st1" d="M182.5,388.3c0,0-3.8,9.9,10.5,40l0.8,33l-6.4,34.2l-13,10.7l-4-3.7l-2.1-5.6l-1.4-3.6
			c0,0-3.5-14.2-6.9-21c-3.4-6.8-17.2-77.1-16.8-88.4C143.7,372.6,182.5,388.3,182.5,388.3z"/>
		<path id="XMLID_252_" class="st2" d="M230.1,491.6c0,0-9-8.7-17.3-23c-8.3-14.3-21-43-21-43s0.9,21.7-0.6,30.7s-6.7,31.6-9.8,37.3
			c-3.1,5.7-9.6,13.2-14.6-0.3l14.9,47.1c0,0,2,6.1,3.5,8.1s9.1,12.3,10.7,13.2c1.7,0.9,5,6.2,5,6.2l29.3-37.7L230.1,491.6z"/>
		<path id="XMLID_288_" class="st3" d="M261.6,453.1c0,0-5,4.6-7.1,5.2c-2,0.6-3.2,4-4.6,8.5c-1.4,4.5-3,3.9-3,3.9l-2.3,0.5
			c0,0-1.3,0.8-1.6,2.9c0,0-8.8,9.9-12.7,12.1v44.1l-62.3,88.6l-45,81.4h132.6L261.6,453.1z"/>
		<path id="XMLID_293_" class="st4" d="M199.3,684.1c0,0-8.4-4.9-25.1,8.9c0,0-7.1,5.5-7.8,7.1h30.8L199.3,684.1z"/>
		<path id="XMLID_292_" class="st5" d="M201.6,685.4c0,0-4.6-4.4-14.5,0c-9.9,4.4-13.7,14.7-13.7,14.7h12.1L201.6,685.4z"/>
		<path id="XMLID_289_" class="st6" d="M198.9,688.5l-18.3,12.7C180.6,701.2,186.6,686.2,198.9,688.5z"/>
		<path id="XMLID_285_" class="st7" d="M230.7,600c0,0,3.2-18,1.8-26.6c0,0-0.6-3.3,0.8-9.6s3.3-15.6,2.4-20.9c0,0,1.2-4.4,0.8-8.7
			s2-12.8,2-12.8s2.1-8.2,1.3-14.5l-2.1,3.9c0,0-1.4-11.6-3.5-13.8c-2.1-2.2-5.2,41.6-5.2,41.6s1.2,16.4,0,25.2
			c-1.2,8.8-1,9.3-1.4,10.4c-0.4,1.1-0.3,1.8-0.3,1.8s0.5,0.5,0.4,1.4s-1.4,10-1.4,10s-0.5,2.9-2.2,0c-1.8-2.9-4.5-8.7-6.4-10.3
			c-1.9-1.7-5.3-4.7-5.4-5.3l-5.2-0.5l-4.2,8c0,0,3.9-1.8,8.7,2c4.8,3.8,6.9,8.8,6.9,8.8L230.7,600z"/>
		<path id="XMLID_291_" class="st8" d="M217.1,476.9c0,0,3.1-2.2,4.6-2s2.4,1.8,9.3,11.7c0,0,3.2,5,4.4,12.5
			c1.3,7.5,1.4,14.9,1.4,14.9s0.3,13.1-2.1,18.7c0,0-7.8,12.7-9.3,16.6c0,0-5.2,9.4-7.8,12.6c-2.6,3.2-21,27.9-23.3,31.6
			s-16.6,25.3-19.6,31.1c-3,5.8-10.5,19-13.6,23.7c-3.1,4.7-14.7,23.9-14.7,23.9s-16.4,26.9-16.8,28.2h-16.3c0,0,20.3-33.2,22-36.1
			c1.7-2.9,23.2-37.5,23.2-37.5l18.2-28.7c0,0,3.2-4.6,5.5-7.1c2.3-2.5,14.9-19.6,14.9-19.6s9.2-11.7,13.8-18.9
			c4.7-7.2,11.5-17.7,13.8-20.9s3.1-8.8,3.1-8.8s2.6-15.3,1.5-24.8c-1.2-9.5-6.3-20.6-8.2-21.1s-3.9,1.3-3.9,1.3L217.1,476.9z"/>
	</g>
	<polygon id="XMLID_294_" class="st2" points="217.6,478.4 216.4,477.5 217.5,476.1 218.7,477.7 	"/>
	<g id="Body">
		<g id="Arm_1_">
			<polygon id="Armpit" class="st9" points="422.7,440.5 433.3,459.4 434.6,479.9 420.9,451.5 			"/>
			<path id="XMLID_36_" class="st10" d="M508,512.6c0,0-0.1,34.8,60.8,114.9s53,72.6,53,72.6l-56.7,0.2c0,0-105.7-228.3-124.7-240.1
				l53.7-0.8L508,512.6z"/>
			<path id="XMLID_5_" class="st11" d="M567.5,625.8c0,0,39.7,62.6,44.9,74.6l10.2-0.2C622.7,700.2,622.9,698.2,567.5,625.8z"/>
			<path id="XMLID_37_" class="st11" d="M550.8,670c0,0-20.2-67.9-28.2-109.3l-34.5-58.4l24,87.5L550.8,670z"/>
			<path id="Arm" class="st12" d="M456.1,372.3c0,0,28.9,6.2,36.7,18.4c0,0,8.1,8.6,7.7,12.2c0,0,5.3,16.9,4.8,25.3
				c0,0,1.3,27.4,2.3,32.3c0,0,4.3,24.2,5.9,29c0,0,2.3,16.4,2.3,22.4c0.1,6,0.6,28.9,1.4,31.5l1.9,21.1l4.8,20.2
				c0,0,6.2,19.7,7.6,20.9c1.4,1.3,0-0.4,0-0.4s-6.7,12.7-7.4,37.6c0,0-11.7,49.3-16.6,54.6c-4.9,5.3-52.5,1.8-52.5,1.8
				s-1-39.9,7.9-80c0,0,9-16.2,7-22.6l-16.5-46.9l-13.9-51.9c0,0-8.3-23.1-7.7-39.3c0,0-7.8-11.1-9.2-17.6s0.8-45.9,0.8-45.9
				l18.6-21.3L456.1,372.3z"/>
			<path id="XMLID_531_" class="st13" d="M466.3,584.2c0,0,11.5,17.2,15.5,20.1l-4.6-3.7c0,0-0.9,2.5,0,3.7c0.9,1.2-2.6,2-2.6,2
				s-1.7-0.1-2.9,2.4c-1.1,2.5-7.9,22.1-8.5,32.3s-3.1,47.5-3.1,54.5c0,7,0,4.8,0,4.8l-5.2-0.2c0,0,0.5-24.1,0.9-30.6
				c0.5-6.4,3.1-33.4,4.7-39.2c0,0,2.1-11,2.3-11.4c0.2-0.4,4.5-8.3,5.4-11.8c0,0,2.3-6.4,1.9-8.8c0,0,0.1-0.7-0.1-1.5
				c-0.2-0.7-3.6-10.1-3.6-10.1s-0.9-2.6-0.9-2.6C465.6,584.3,466.3,584.2,466.3,584.2z"/>
			<path id="XMLID_533_" class="st2" d="M511.3,700.1l0.9-1.6c0,0,0.5-0.8-0.4-3.6c-1-2.8-4.7-14.3-11-18.5
				c-6.3-4.3-21.7,2.5-21.7,2.5s-21.2,12.1-24.6,21.2H511.3z"/>
			<path id="XMLID_528_" class="st13" d="M482.8,382c0,0-3.7-1.1-4.5-0.5c-0.8,0.7,11.3,12.3,11.3,12.3s-12.6-6.5-17.1-11.6
				c0,0-21.2-4.5-27.8-0.7l-2.3,4.3c0,0,5.4-3.1,7.7-0.2c0,0,3.3,2.8-1.5,5.7c-4.8,2.9-17.6,8.8-19.7,15.4
				c-2.1,6.6-3.4,22.7-3.4,22.7s8.4,2.5,10.8,9.7s15.6,21.1,15.6,21.1l7,7.3l-17.3-6.6c0,0,2,8.8,2,13.3c0,4.6,3.3,14,3.3,14
				s5.2,24.3,4.3,34.7s11.8,44.2,11.8,44.2s0.6,9.8,2.6,14.8c2,5,4.5,15.1,4.5,15.1l-9.9-28.3l-6.8-19.3l-13.3-49.7
				c0,0-6.8-23-6.7-25c0,0-2.1-11.4-1.5-16.5c0,0-6.7-9.3-9.2-17.8c-2.4-8.4-3-11.2-3-11.2l4.8-34.1l13.3-14.2l14.2-11l18.3,5.4
				L482.8,382z"/>
			<path id="XMLID_136_" class="st14" d="M490,388.2l-2.2,5l-1.7-1.9l-1.4,6.7c0,0-0.8,4-3.5,0.8c0,0-5.3-6-21-2.4l-20.7,5.1
				l-4.1,18.4c0,0,22.3,2,26.8,15.5c0,0,9.2-16.9-2.5-25.4c0,0-7.5,5.2-10.7,1.8c0,0-5.1-2.6,0.4-5.1c0,0,9.7-2.6,17.7-1.9
				c0,0,9.6,5.8,8.5,22.2c0,0,0.4,7.8,5.9,10.3c0,0,8.2,2.2,13-8l10.4,4.2C504.9,433.5,505.2,400.7,490,388.2z"/>
			<path id="XMLID_129_" class="st14" d="M504.9,438.5l-6.6-3c0,0-3-2.3-5.3,2s-5,11.1-5,11.1s-0.6,8.3,9.9,10.1
				c0,0-2.6,12.5-3.6,14.3c-1.1,1.8,0.6,10.1,5.3,10.4c4.7,0.3,6.6-5.4,6.6-5.4l4.5,1.5l-1.4-5.7l-3.5-1.5c0,0-4.7,5.9-6.5,3.8
				c-1.9-2.1,4.9-10.4,4.9-10.4l3.9,2.4"/>
			<path id="XMLID_137_" class="st14" d="M486.1,447.1c0,0-10,3-12.3-9.6l-4.4,9.4c0,0,6,13.7,11.4,12.5c0,0,3.4,0,4.8-7.8"/>
			<path id="XMLID_138_" class="st14" d="M494.4,467.7c0,0-6-2.1-8.3-6.8l-3.1,2.5c0,0,2.5,1.9,2.9,9.6c0,0,1.1,4.6,4.3,2
				C490.2,475,493.2,472.6,494.4,467.7z"/>
			<path id="XMLID_146_" class="st14" d="M476.6,464.5c0,0-2.6,7-5.5,10.4l-6.2-4.3c0,0-4.7-1-1.1,3.6c3.6,4.7,3,4.4,5.7,6.5
				c0,0-1.3,9.1-3.1,11.8c0,0-8.7-5.5-18.3-19.7c0,0,14.3-12.6,18.2-18.5C466.3,454.4,468.5,458.9,476.6,464.5z"/>
			<path id="XMLID_140_" class="st14" d="M489.8,479.9c0,0-8.3,3.9-10.6-10.5c0,0-1.8,4.9-3.8,6.4c0,0,2.2,14.6,10.8,14.5l5-7
				L489.8,479.9z"/>
			<path id="XMLID_156_" class="st14" d="M512,485.2l-3.2-1.9c0,0-5.4,7.5-13.2,2.7c0,0-5.7,17.9-21.2,3.6v12c0,0,7.5,9.3,13.8-2
				c0,0-4.7-5,4.1-3.3c0,0,4.7-4.9,5.9,1.8c0,0,3.9,4.7,9.2-1c0,0,3.3-4.4,6.3-1.1"/>
			<path id="XMLID_149_" class="st14" d="M513.6,500.3l-2.9-1.4c0,0-7.5,10.8-19.7,1.4c0,0-2.2,7.4-6.6,7.8c0,0,6.9,9.4,9.5,9
				c0,0,5.9-4,4.7-8.2l-1.7-1.2l1-1.5c0,0,4.4-0.5,5.3,1.8c0,0,0.4,5-3.5,10.5c0,0-3.6,4.4-7.1,5.1c0,0,4,12.9-10.2,21.1
				c0,0-9,2.9-4.7-4.7c0,0,2.4-2.6,6.5-2.9c0,0,7.3-6.2,2.5-15c0,0-3.8-6.5-12.4-4.2c0,0-12.4,5-0.5,10.4c0,0-1.5-9.5,8.5-4.9
				c0,0,5.3,2.7-0.8,10.1c0,0-1,2-9,1.6c0,0-14.2,16.4-15.3,20.6l2.5,7.7c0,0,24.2-8.9,26.1-9.3c2-0.4,8.2-2.6,12.5-15.9
				c4.4-13.3,6.6-22.9,6.6-22.9s2.7-7.5,6.4-10.1c0,0,1.1-1.2,2.2,1"/>
			<path id="XMLID_158_" class="st14" d="M519.6,568c0,0-5.8,7.4-1.1,9.1c0,0,2.5,1.3,3-0.7"/>
			<path id="XMLID_6_" class="st14" d="M513.6,511.3c0,0-1.7-0.5-12.9,35.9c0,0-8.9,20-14.8,26.9c0,0,0.6,13,7.5,21.1
				c0,0,5.6,11.3,31.2,17.6c0,0,1.6,1.1,2.4,3.9c0,0,6.2-11.7,0.9-19.7c0,0-3.3,9.6-12.1,3.3c0,0-15.5-7.6-12.3-23.2
				c0,0,16,5.3,10.9-5.3c0,0-2.2-4-5.9-5l6.5-10.8l3,4.4l-1.6-15.7l-11.9,19.9l-4.1-2.3l15.2-26.8"/>
			<path id="XMLID_166_" class="st15" d="M498.3,586.3h-3.8c0,0,3,18.1,29.3,23.1c0,0,2.5-0.7,2.9-5c0.4-4.3-2.5,2.1-3.5,1.9
				C523.2,606.3,507,604.6,498.3,586.3z"/>
			<path id="XMLID_152_" class="st15" d="M498.3,574.6c0,0-1.7,1.3-1.1,4.2h-3.9c0,0-1.5-3.7,1.8-6.1L498.3,574.6z"/>
		</g>
		<g id="Torso">
			<path id="XMLID_27_" class="st16" d="M374.4,603.2c0,0,15.9,6.3,19,14.7c0,0,0.7,1.2-1.2,4.5s-12,14.8-12,14.8l-8.4-28.9
				L374.4,603.2z"/>
			<path id="XMLID_134_" class="st17" d="M439.5,497.6c0,0-15.6,20.4-50.1,50.4v5.4c0,0-8.3,4.1-11.9,34.2c0,0-4.5,31.1,1.7,39.8
				c6.2,8.7-135.6-4.1-135.6-4.1l-13.5-27.6c0,0,9.6-12.9,9.8-65.3c0,0,4.2-11.4,4.8-21.9l6.5-22.5c0,0-1.1-7.6,7.5-28.1
				c0,0-2-14.6,20.5-40.9c0,0,32.6-36.5,38.2-36.6c5.6-0.1,62.6-14.9,62.6-14.9l41.8,40.2l-0.4,42.5c0,0,8.5,22.3,11.4,27.1
				C435.5,480.3,439.5,497.6,439.5,497.6z"/>
			<path id="XMLID_176_" class="st18" d="M305.1,631.7c0,0-4-27.1,16.1-16.7c20.1,10.4,36.3-2.4,36.3-2.4s12.2-12,3.6-19.4
				c0,0-5.7-4.9,1.3-1.7c0,0,11.1-1.1,6.8-12.7c0,0,0.9-3.9-19-3c0,0-7.3,1.6-10-6.1c0,0-1.6-4.3,2.8-7.5c0,0,2-1.7,3.2,0.7
				c0,0,0,0.9-1.1,1.7c0,0-5.4,4.2,0.3,7.3c0,0,5.9,0.8,9.1-4c3.2-4.7,3.2-6.9,3.2-6.9s1.2-3-4-12.7c0,0,7.5,1.3,11-3.1
				c0,0,5.2-5.7,2-9.1c0,0-4-2.6-1.8-7.3c2.2-4.7,5.6-5.4,5.6-5.4s3.6-0.2,1.7,2.5c0,0-5,2.2-3.9,6.3c0,0,2,3.5,6.2,1.6l1.5,1.2
				l4.6-5.5c0,0-4-5.4,4.9-12.5c0,0-5.6-5.6,7.4-10.2l18.4-27.9l-19.6,21.4c0,0-3.9,4.9-9.6,6.4c-5.7,1.5-7.1,8.8-7.1,8.8
				s-0.2,2.4-4.4,2.5c0,0-12.2-0.1-18.3,12.2c0,0-8.6,2-8.5,7.1c0.1,5.2,5.3,5.6,5.3,5.6s4.2,1.4,7-2.8c2.8-4.1-4.3-3.1-4.3-3.1
				s-4,0.4-1.3-2.6s8.4,0.6,8.3,1.3c0,0,2,4.2-1,6.7s-5.9,4.3-9.4,3.3c0,0-0.5,4.9-6.5,8.3c-5.9,3.4-9.9-2.8-10-3.9s-0.5-2.9,2.4-6
				c0,0,2.3-1.5,3-0.2c0.7,1.3-1.4,2.2-1.4,2.2s-2.9,3.3-0.1,5c0,0,3.7,2.6,6.3-0.3c2.6-2.9,3.6-4.2,2.3-9c-1.3-4.9-9.4-5.2-9.4-5.2
				s-7.6-0.2-10.3,4.6s-3.9,7.2-0.5,15c0,0,9.2,2.1,8.4,9.6c-0.8,7.5-4.3,10.4-4.3,10.4s-2.8,2.4-4.9,1.9c0,0-3-0.5-0.6-2.1
				c2.4-1.7,0-0.2,0-0.2s5.7-0.7,6.7-6.3c1-5.6-1.1-7.8-1.1-7.8s-3.8-4.3-9-0.7s-8.8,10.8-8.8,10.8s-5.9,14.5,2.7,24.3
				c0,0,1.5,1.4,6.7-6c0,0,16.2-17.6,32.1-3.2c0,0,9.8,13.1-5.6,20.3c0,0-5.3,4.6-23.6-2.5c0,0-17.6-7.9-24,2.4
				c-6.4,10.3-4.2,19.5-4.2,19.5L305.1,631.7z"/>
			<path id="XMLID_26_" class="st18" d="M266.3,614.5c0,0-2.1-9.7,7.2-11.9c0,0,12.8,0.2,18.1-10s-2.6-16.2-2.6-16.2
				s10.8,0,14.2-12.9c0,0,0.5-3.3,0-5.7c0,0-1-3.5,5.1-5.7c6.1-2.2-3.9-3.7-5.8-2.3c0,0-5.3,2.5-6.7,8.3c0,0-1.3,7.6-12.4,5.7
				c0,0-8.6-0.5-14.1,12.6c-5.5,13.1,4.3,14.2,4.3,14.2s8.2,0.2,6.3-8c0,0-0.9-1.6-2-1.7c0,0-1.5-0.2-0.5-1.4c0,0,1.6-2.3,3.2,0
				c0,0,4.6,4.1,0.8,10.6c0,0-2.2,3.1-7.4,3.8s-14.5,6.9-14.5,6.9l-8.2-1.3c0,0,1.8-3,3.4-3.6c0,0,4.8,4.7,6.3-1.1
				c1.5-5.8-5.5-6-5.5-6s-5.6-0.6-8.6,9.1c-3,9.6,1,12,1,12L266.3,614.5z"/>
		</g>
		<g id="Below">
			<path id="XMLID_28_" class="st16" d="M393.3,700.2l-94.2-72.6l-15.5-22.2c0,0-1.2-1.8-3-2l-52.7-8.9l-5-4.7l-3.6,2.1
				c0,0-1,1.1-0.5,2.1s5.5,13.1,5.5,13.1s1.5,2.6-1.1,4.6s-3.1,23-3.1,23l-18,65.6H393.3z"/>
			<path id="XMLID_165_" class="st19" d="M385.5,616.7c0,0,0,10.8-4.2,19.6l2.5,17.3c0,0,9.2,21.2,9,23.8c0,0,2.5-1.1,9.4,4.3
				c0,0,0.7,15.7,0,18.4h-21.4l-9.4-11.1l-30.1-0.3c0,0-1.9,0.1-3.5-1.3c0,0-31.3-22.1-37.1-35.1l-8-20.6c0,0,10-18,39.6-19.8
				c0,0,18-1.8,43.6,3C375.9,614.9,380.5,613.1,385.5,616.7z"/>
			<polygon id="XMLID_24_" class="st20" points="297.5,646.3 319.3,660 313.8,676.3 293,665.1 			"/>
			<path id="XMLID_30_" class="st16" d="M310.8,669.9l-11.8-7.7l1.8-10c0,0,3.2,6.1,10.9,14.4L310.8,669.9z"/>
			<path id="XMLID_29_" class="st19" d="M311.8,666.6c0,0-12.3-11.7-10.8-14.8c0,0,7.9,4.5,12.7,8.7L311.8,666.6z"/>
			<path id="XMLID_183_" class="st21" d="M288.4,674.7c0,0-2.5,2.4-3.5,5.3c-1,2.9-7.8,20.1-7.8,20.1h-77.5l12.2-47.6L288.4,674.7z"
				/>
			<path id="XMLID_201_" class="st22" d="M294.4,654.7c0,0-1.1,13.3-5,20.2c0,0-4.7-2.6-33,8.3c-28.4,10.8-30.5,10.5-30.5,10.5
				s-2.5,1.3-3.2-1.1c-0.7-2.4-11.1-40-11.1-40l11.1-20.4l71.7,19.7V654.7z"/>
			<path id="XMLID_25_" class="st21" d="M286.9,642.6c0,0-32.3,10.4-52.4,23.1c0,0-5.6-11.3-8.1-31.6c0,0-3.4,1-3.8,3
				c-0.5,2.1,8.2,38,8.2,38s59-21.7,64.5-20.5c0,0,3.9-9.5,1.1-14.1S286.9,642.6,286.9,642.6z"/>
			<path id="XMLID_214_" class="st23" d="M223.7,634.5c0,0-2.3,14.5-11.3,18.2l9-19.8L223.7,634.5z"/>
			<path id="XMLID_225_" class="st24" d="M222.9,632.9c0,0-2,4.6-3.7,6.1s-0.2,2.8,1,2c1.1-0.9,5-5,5.3-6.8L222.9,632.9z"/>
			<path id="XMLID_168_" class="st25" d="M382,635.1c0,0-30.7,9.2-97.8-4.6c0,0-57.9-9.8-60.9-18.7l0.6-1.4l-4.5,3.4l1.1,18.2
				c0,0,17.2,10.3,52.1,15.2c0,0,95.9,20.6,113.6,5.7l-1.3-6c0,0,3.6-1.6,1.3-7l0.5-4.9c0,0,1.1-1.9-1.5-2.6c0,0-5.5-1.5-3.4,2.4
				C383.9,638.7,382,635.1,382,635.1z"/>
			<path id="XMLID_34_" class="st23" d="M211.8,671.6c0,0,1.5,8.9-2.4,15c-3.9,6.2-9.2,2.1-9.2,2.1l2.7-12.3
				C203,676.4,207.8,675.2,211.8,671.6z"/>
			<path id="XMLID_31_" class="st26" d="M214.1,645.8c0,0-14.8,4.7-11.9,31.4l3.4,0.2c0,0-3.1-12.5,6.1-26.8L214.1,645.8z"/>
			<path id="XMLID_32_" class="st26" d="M212.3,651.4c0,0-1.2,17.3-8,24.2l-1.1,2.6c0,0-0.2,2.1,3.3,2s11.6-13.1,12.3-24.8
				c0.8-11.7-4.2-9.3-4.2-9.3L212.3,651.4z"/>
			<path id="XMLID_33_" class="st27" d="M207.1,672.7c0,0-2.5,4.1-2.5,12.2s-7.1,4.5-7.1,4.5s4.9-13,3.3-16.7c0,0,0.8-0.1,1.5,0.7
				C203,674.2,206,671.8,207.1,672.7z"/>
			<polygon id="XMLID_169_" class="st19" points="383.1,631.7 381.8,635.2 380.5,632.2 			"/>
			<path id="XMLID_167_" class="st27" d="M285.4,630.7c0,0-1.9-0.5-3,4.7l-1.6,8.6c0,0-0.7,0.5,0.8,4.7c0,0,0.9,1.2-1.7,0.6
				l-8.3-1.4c0,0-0.3-16,4-20.4C275.5,627.5,287.7,628.4,285.4,630.7z"/>
			<path id="XMLID_221_" class="st27" d="M222.4,633.5l-1-0.5c0,0-8.4,11.8-10.1,17.5c-1.7,5.7,2.2,1.7,2.9,0
				C215,648.7,221.7,634.1,222.4,633.5z"/>
			<path id="XMLID_175_" class="st27" d="M227.9,616.1c0,0-1.9-2-2.7,4.7c0,0-1.8,10.5-0.5,13.8c0,0-4.6-0.2-4.5-3.7s0-0.5,0-0.5
				s0.1-12.3,1.7-15.5c0,0,1.2-3.5,3.6-1.7C225.6,613.2,227.3,614.4,227.9,616.1z"/>
			<g id="idk">
				<path id="XMLID_173_" class="st24" d="M260.3,663.7l-0.1,3c0,0,1.1,0.9,1.1,4.9c0,4.1-0.1,5.8-0.1,5.8l-7.5,6.7
					c0,0-1.7,1.5-1.1,3.6c0.6,2.1,3.7,12.4,3.7,12.4H229c0,0,4.6-6,9.3-9c0,0,4.9-2.7,6.6-5.3c1.6-2.6,2-2.1,1.3-6.5l-0.3-3.9
					c0,0,6.5-6.8,10.7-9.7C256.5,665.8,258.2,662.9,260.3,663.7z"/>
				<polygon id="XMLID_202_" class="st28" points="257.1,667.9 257.1,675 249.5,681.5 249.7,673.8 257.1,667.8 				"/>
				<path id="XMLID_203_" class="st29" d="M252.2,700.1c0,0-2.1-2.7-3.6-3c0,0-3.3-1.6-7.7,3H252.2z"/>
				<path id="XMLID_204_" class="st29" d="M239.7,700.1c0,0,0.4-3.2-0.5-5.1c0,0-6.4-1.8-11.3,5.1H239.7z"/>
			</g>
			<g id="idk2">
				<path id="XMLID_174_" class="st24" d="M237.5,665.7l-1.1,2.2c0,0,0.1,7.1-3.4,11.6l-8.7,3.4c0,0-2.1,0.6-2.6,2.7
					s-1.4,13.1-1.4,13.1l-1.7,1.5H182l22.3-15.7c0,0,8.9-1,11-2.7c2.2-1.7,2-0.5,3.5-5.3l1.6-4.7c0,0,0.2-0.5,1.7-1.2
					c1.5-0.7,11.9-3.7,11.9-3.7S235.6,665,237.5,665.7z"/>
				<path id="XMLID_206_" class="st28" d="M233,669.1l-2.1,5.7c0,0-0.2,0.8-1.4,1.2l-8.2,3l3-8.2C224.4,670.8,231.2,669,233,669.1z"
					/>
				<path id="XMLID_209_" class="st29" d="M185.5,700.1c0,0-2.1-5.4,13.1-13c0,0,4.4-1.2,6.7-0.8c2.3,0.5,3.2,1.2,0.9,4.7
					c0,0-3.6,4.7-8,4.9c0,0-6.1-0.6-0.8-5c0,0-1.7,2.6,0.9,2c0,0,2.8,0.3,3.5-3.6c0,0-2.7-1.5-8.4,3.4c0,0-3.9,4.5-2.4,7.3H185.5z"
					/>
				<path id="XMLID_212_" class="st29" d="M217.2,700.1c0,0,2.2-0.4-1.6-6.5c-3.8-6.1-12.4-1.6-12.4-1.6s-2.5,1.2-2.5,3.4
					c-0.1,2.2-0.6,3.1,0.9,4.6c0,0,4,3.7,4.4-1.1c0,0-2,3-2.5-0.3c0,0-0.7-2.7,1.1-2.7c0,0,4-0.3,4.7-0.3c0.7,0,1.9,1.9,0.4,4.4
					H217.2z"/>
			</g>
			<g id="idk3">
				<path id="XMLID_215_" class="st24" d="M227.5,656l-1,0.8c0,0-1.2,3.5-6.3,7.7h-9.9c0,0-2.7-0.5-3.9,1.8c0,0-4.7,7-5.9,10.7
					l-25.8,8.7c0,0-4.6,1.4-9.5,0l-14.4-5.4l7.3-12.1c0,0,1.1-2.1,9.4-4.6c8.3-2.5,20.2-4.4,20.2-4.4s8.2,0.2,11,1.3
					c2.7,1.1,18.7-5,18.7-5h6.9c0,0,1.5-1.4,3.3-0.8C229.3,655,227.5,656,227.5,656z"/>
				<path id="XMLID_218_" class="st28" d="M224.4,655l-6.2,5.3c0,0-8.3-0.4-9.5-1.4C208.7,658.9,211.8,650.2,224.4,655z"/>
				<path id="XMLID_220_" class="st29" d="M196.2,677.5c0,0,3.6-5.6,2-9.6c-1.6-4-6.6-4.7-6.6-4.7s-3.6-0.7-6.1,0.8
					c0,0-1.7,1.8-1.9,3.3c-0.2,1.5-0.6,2.7,4,4.1c0,0-3.7-1.8-0.1-3.9c0,0,3.5,0.3,4.3,1.6c0.9,1.3,0.3,1.9,0.3,1.9
					s-1.8,2.7-2.9,3.2c-1.1,0.5-1.1,1-3.3,0.1c-2.2-0.9-6.2-3.4-11.6-3.9c0,0-8-2.1-11.1,4.7c-3.2,6.8-1.6,3.4-1.6,3.4
					s-0.5,0.8,0.1,1.6s3.5,4.6,6.6,5.7c3.2,1.1,5.6-0.8,7-5.5c0,0-4.3,5.5-8-0.3c0,0-1.2-3.8,3.5-3.9c4.7-0.1,13.1,4,13.1,4
					S189.5,684.2,196.2,677.5z"/>
				<path id="XMLID_222_" class="st29" d="M183.7,661c0,0-0.8,1.2,0.7,1.2c1.4,0,2.4-1.2,2.4-1.2s-1.4-1.4-5.6,0s-4.6,0.6-8.6,5.3
					c-4,4.7-7.6,6-10.1,6.1c-2.5,0.1-5.9-0.8-5.9-0.8s1.4-1.7,1.4-3.1c0.1-1.5,3.3-2.9,3.3-2.9s-2.2,2.6,0.5,3.1
					c2.7,0.5,5.2-1.5,9.5-5.9l3.1-3c0,0,1.2-0.6,3.1-0.7c1.9-0.1,10.5-1.5,10.5-1.5s0.7-0.3,1.6,0.4s2.1,1.3,2.1,1.3s1.5,0.7,0,2
					c-1.5,1.3-3.9,3.7-8.9,2.6C177.6,662.7,183.7,661,183.7,661z"/>
			</g>
		</g>
		<path id="XMLID_131_" class="st30" d="M429,468.5l-3.1,4.4c0,0-25.1-46-23.4-53.5c0,0,15.2-0.3,5-12.3c0,0-18.5-17.3-13.2-31.1
			l3.1-2.6l-0.9,3.3c0,0,1.7,13.4,6.9,18.4c0,0,7.5,10.4,9.3,12.9c1.8,2.5,6.4,7.6,2,12c0,0-1.4,1.8-7,3.5c0,0,5.8,14,6.9,16.3
			C415.6,442.4,429,468.5,429,468.5z"/>
		<path id="XMLID_128_" class="st6" d="M449.4,359.2c0,0,30.6,22.7,33.5,22.8c2.9,0.2-24.3-9.4-27.9-9.2
			c-3.6,0.2-28.9,14.9-31.7,48.4s4.4,45.2,8.7,53.1c0,0-23.8-44.8-24.5-50.7c0,0,13.9-2.7,6.5-13.4c-7.4-10.7-16.1-19.7-17.6-32.3
			c-1.5-12.6-1.7-17.3-1.7-17.3l22.7-10.3L449.4,359.2z"/>
		<g id="Necklace2">
			<ellipse id="XMLID_22_" class="st31" cx="372.9" cy="360.9" rx="7.4" ry="7.5"/>
			<ellipse id="XMLID_23_" class="st31" cx="358.7" cy="364.9" rx="7.4" ry="7.5"/>
			<ellipse id="XMLID_58_" class="st31" cx="344.6" cy="370.5" rx="7.4" ry="7.5"/>
			<ellipse id="XMLID_109_" class="st31" cx="331.4" cy="377.3" rx="7.4" ry="7.5"/>
			<ellipse id="XMLID_113_" class="st31" cx="319.4" cy="384.2" rx="7.4" ry="7.5"/>
			<ellipse id="XMLID_121_" class="st32" cx="298.3" cy="406.2" rx="6.6" ry="7.3"/>
			<path id="XMLID_123_" class="st33" d="M296.1,412.1c0,0-1.1-4.2-4.2-2.2c-3.2,2-31.4,36.1-36.5,73.4c0,0,2.9,4.7,5.1,4.1
				S296.1,412.1,296.1,412.1z"/>
			<ellipse id="XMLID_117_" class="st34" cx="308.4" cy="394.5" rx="10.9" ry="11.3"/>
		</g>
		<path id="XMLID_4_" class="st35" d="M384.3,316.5c0,0-3.5,7.5-18.5,16L339,348.7l5-10.8c0,0-25.8,30.8-28.5,35.7
			c0,0-19.5,13-32,5.7c0,0-12.1-6.3-10.5-17.9c0,0,2.3,12.7,23.4,8.9c0,0,11.1-1.3,17.2-15c0,0-11.3,9.3-21.6,8.4
			c0,0,19.3-5.7,29.8-20.2c0,0-16.2,10.8-31.4,3.6c0,0,28.6,5.4,48-38.4l15.9-5.9L384.3,316.5z"/>
		<path id="XMLID_11_" class="st36" d="M375.3,313.5l-32,29.4l-10.8,9.7c0,0-10.7,11.6-7.4,19.1c0,0,1.5,2.2,10,0
			c0,0-8.7,7.6-15.2,4.4c0,0-7.2-2-3.6-13.4c0,0-9.6,9.8-18.3,9.4c0,0,13.3-4.8,21.6-19.8c0,0,5.7-10.8,11.9-18.8
			c6.2-8,21.7-22.3,21.7-22.3L375.3,313.5z"/>
		<path id="XMLID_8_" class="st12" d="M451.1,214.2L390.7,158l-60.4,12l-15.6,14.4c0,0-6.8,21.6-5.8,34.2c0,0,10.4,35.4,9.2,46
			c-1.2,10.6,25,51.6,25,51.6s3.4,8,11.6,5s23.4-5.2,23.4-5.2s2.9,12.2,1.9,20.4c-1,8.2,63.6-2.6,63.6-2.6l4.2-76.6L451.1,214.2z"/>
		<path id="XMLID_15_" class="st6" d="M443.9,320.9l3.8,26.8l-75.8,22.4l3-12c0,0,5.6-3.4,4.8-28.2c0,0,3.6,0,6.2,5.4
			C385.9,335.3,409.1,313.9,443.9,320.9z"/>
		<path id="XMLID_13_" class="st37" d="M379.6,324.3l6.6,6.7c0,0,15-12.2,27.8-12.6s4.3-9.4,30.4-0.3l0.2,6.4
			c0,0-20.7-10.1-46.8,3.8s-0.2,0-0.2,0s-8.5,4.3-8.4,8.2c0,0-1.1,18.6-2.3,20.8c0,0-1.9,5.7-5.7,8c-3.7,2.3-5.5,1.2-5.5,1.2
			s6.5-5.2,7.4-15.7c0,0,0.9-14.6,0.2-16.2c0,0-2.5-3.9-3.8-3.7L379.6,324.3z"/>
		<g id="Necklace">
			<ellipse id="XMLID_16_" class="st38" cx="450.8" cy="349.1" rx="5" ry="5"/>
			<ellipse id="XMLID_18_" class="st38" cx="457.8" cy="352.3" rx="5.8" ry="5.9"/>
			<ellipse id="XMLID_19_" class="st38" cx="460.1" cy="358.6" rx="7.3" ry="7.4"/>
			<ellipse id="XMLID_54_" class="st38" cx="426.9" cy="376.6" rx="7.2" ry="7.4"/>
			<ellipse id="XMLID_71_" class="st38" cx="412.7" cy="382.8" rx="7.6" ry="7.7"/>
			<ellipse id="XMLID_72_" class="st38" cx="397.3" cy="388.7" rx="8.1" ry="8.2"/>
			<ellipse id="XMLID_73_" class="st38" cx="381.3" cy="393.1" rx="8.2" ry="8.4"/>
			<ellipse id="XMLID_79_" class="st32" cx="340.2" cy="412.1" rx="6.6" ry="7.3"/>
			<path id="XMLID_83_" class="st33" d="M339.3,419.1c0,0-0.6-5.4-4.4-2.7c-3.8,2.7-21.9,35.6-22.7,38c-0.8,2.4-9.6,24.8-9.2,31.4
				c0.5,6.6,0,9.8,0,9.8s9.2,0.3,14.1-4.5C322.2,486.2,315.2,477.8,339.3,419.1z"/>
			<ellipse id="XMLID_74_" class="st38" cx="365.1" cy="396.5" rx="8.2" ry="8.4"/>
		</g>
		<g id="XMLID_127_">
			<path id="XMLID_122_" class="st39" d="M321.8,411.9l-1.4,27.2c0,0-54.5,60.2-74.9,87.6c0,0,23.3-77.2,34.3-91.3
				c11-14.1,30.6-28.2,30.6-28.2L321.8,411.9z"/>
			<path id="XMLID_124_" class="st40" d="M348.5,396.9c0,0,1.2-17.3,0-21.5c0,0,2-5.3,1.2-9.5c0,0-29.3,11.6-32.7,17.1l-2.6,12.9
				l-4.7,2.1l-0.9,6.5l-5,7.5c0,0-13.1,4.1-15,6.2c-2,2.1-8.3,6.3-8.3,6.3l-1.6,10.4l-1.1,10.6l12.8-4.4l-2-3c0,0,5.1-8.9,14.1-4.4
				c0,0,5.3,12.8-11.7,15.3l2.4,20.7l14.1-8.7c0,0-1.3-7.1,6.2-14l5.6-6.5l2.1-6.5l-12.5-14.9l-2.6-6.9l15.2,1.8l9.5-3.2l-1.4-6.3
				L348.5,396.9z"/>
			<path id="XMLID_125_" class="st41" d="M318.3,393.3l6.6-5.1c0,0,8.7,2.7,15-4.4c0,0,0.5-7.2-1.8-7.8s-8.4-0.3-12.2,3.3
				c0,0-2.6,1.3-2.8,8.2L318.3,393.3z"/>
			<path id="XMLID_126_" class="st42" d="M337.2,380c0,0,0.2,9-10.7,7.1c0,0-0.5-2.4,4.7-6C331.2,381.2,334.8,379.4,337.2,380z"/>
		</g>
		<path id="XMLID_14_" class="st43" d="M456.1,368c0,0-2-10.2-6.2-15.2l-3.1-12c0,0-5-11.1-31.1-1.2c0,0-8.6,1.5-18.9,15.3
			c0,0-8.4,10.3-21,11.4l1.5-12.4c0,0-29.6,36.9-31.1,39.8c0,0,23.7-9.9,28.8-11.6s21.3-9.8,25.2-15.6c0,0,6.6,5.1,20.7-10.1
			C421,356.6,435.1,372.9,456.1,368z"/>
		<ellipse id="XMLID_78_" class="st34" cx="349" cy="398.6" rx="10.9" ry="11.3"/>
		<ellipse id="XMLID_21_" class="st38" cx="439.9" cy="370.7" rx="7.2" ry="7.4"/>
		<ellipse id="XMLID_20_" class="st38" cx="451.7" cy="364.1" rx="7.2" ry="7.4"/>
		<path id="XMLID_17_" class="st44" d="M375.5,366.6c0,0-17.3,16.1-18.2,17.4C357.2,384.1,367.6,370,375.5,366.6z"/>
		<path id="XMLID_12_" class="st45" d="M329.6,191.1c0,0,3,7.4,3.9,8.4c0,0-2.6,7.3-2.2,9.7l-4.1-8.3
			C327.2,200.9,327.2,197.7,329.6,191.1z"/>
		<path id="XMLID_9_" class="st12" d="M457.5,216.3c0,0,3.6,0,7.9,5.1c4.4,5.1,3.2,12.4,3.2,12.4s-0.4,2.8-1.6,5c0,0-1.9,4.3-3.7,7
			c0,0-1.7,2.8-5.2,6.8c0,0-2.7,3.1-4.9,2.7C451.1,254.8,457.5,216.3,457.5,216.3z"/>
		<path id="XMLID_530_" class="st13" d="M344.8,318.9c0,0,1.7,3.1,13.8-0.7c12.1-3.8,49.1-15,61.7-31.7l24.8-6.5v25.3l-0.7,12.8
			L387,334.8l-7.4-10.5c0,0-1.3-8.1-1.5-8.3s-20.2,3.7-22.7,5c-2.5,1.3-5.8,1-6.4,0.6C349,321.6,346.9,321.3,344.8,318.9z"/>
		<path id="XMLID_7_" class="st36" d="M369.1,361.4c0,0,22.5-2.7,38.4-25.8c15.9-23.1,21.3-59.4,21.3-59.4l3.9-81L385.9,146l-38.1-3
			l-39.1,21.7l-9.8,100.4c0,0,11.4-8.4,14.2-16c0,0,1.4,7,3,9.2c0,0-2,14.8-7,17.4c0,0,6.6-6.6,9.4-8.8c2.8-2.2-3.8-26.2-3.8-26.2
			s-6-20.2-4.6-28c1.4-7.8,6.2-27.2,6.2-27.2s1.4-1.7,4.7-1.3c0,0-1-2-2.9-2.4c0,0,1.1-1.9,5,0.6c0,0-1-3.2-2-3.7
			c0,0,5.4,0.8,8.3,4.1c0,0,1.1-3.3,9.4-8l-0.2,2.9c0,0,5.4-3.4,8.9-3.1s15.2-2.2,15.2-2.2l3-0.3l37.8,0.5l10.8,16.1l-1.2,95.6
			c0,0-3,17-4.9,22.2s-6.2,17.7-7.8,20.7s-8.2,15.8-11.5,19.6s-6,7.4-11.6,10.2C371.9,359.6,369.1,361.4,369.1,361.4z"/>
		<path id="XMLID_10_" class="st46" d="M370.3,108.9c0,0-16.9-10.4,5.9-39c0,0,42.4-11.6,67.6,10.6c0,0-14.1-20.5-41.7-22.3
			c0,0-17.7-3.4-33.4,7.4s-17.9,23.9-17.9,23.9s-2.3,9.9,5.9,16.9c0,0,4.1,3.4,7.2,4.4L370.3,108.9z"/>
		<path id="XMLID_35_" class="st47" d="M384.9,106.9c0,0,29.3-11.5,62.1,1.2c0,0,26.9,12.5,42.6,32.7c0,0,19.5,26.9,29.3,34.5
			c0,0,18,12.9,30.8,1.4c0,0,1.7,4.1-12.8,14.3c0,0-14.3,10.1-29.3,8.7c0,0,9.9,15,23,19.8c13.1,4.8,29.9-5.6,29.9-5.6
			s-2.7,12-12.8,19.4s-13.7,9.9-26.4,9.8c0,0,5,5.6,15.3,2.4c0,0-1.8,8.9-23.4,6.2c0,0,24.5,13.2,32.7-5.7c0,0-1.5,15.1-20.1,28
			c0,0-13.1,10.7-32.6,4.1c0,0,7.3,7.7,25.9,3.8c0,0-9.2,9.9-27.8,1.1c0,0-13.4,6.2-25.1-0.5c0,0,4.5,16.2,19.8,9.4
			c0,0-2.2,10-21.2,5.6c0,0,3.3,17.4,19.1,14.6c0,0-16.9,11-30.6-10.1c0,0-5.6,5.5,6.3,19.9c0,0-15.3-9.2-16.1-23.1
			C442.7,284.7,384.9,106.9,384.9,106.9z"/>
		<path id="XMLID_38_" class="st35" d="M459.9,170.9c0,0,33.3,60.9,74.7,41.4c0,0-8.1,18.3-50.1,13.5c0,0-18.6-3.6-26.3-19.1
			c0,0,1.1,33.3-3.5,49.5c0,0-7.8,36-14.1,48.9c0,0-20.1,45.2-26.7,51.2c0,0-13.4,19.1-20.4,23.4c0,0-17,15.6-25.7,17
			c0,0-7.1,2.4-13.8,2.1c0,0,20.3-4.7,40.7-33c0,0,17-26.9,24.3-51.9c0,0,9.5-29.7,9.3-51.3c0,0,2.3-47.3-1.8-58.7l-2.1-7.1
			c0,0,0,34.8-1.4,41.7c0,0,1.5,21.6-2.9,32c0,0-2.4,13.7-12.5,21.2c0,0-2,1.8-4.7,3.2c0,0,8.4-11.6,9.5-42.5c0,0-3.3,14-19.4,14.7
			c0,0,18-7.5,16.7-41.7c0,0,3.3-32.9-1.7-40.2c-5-7.4-62.3-58.4-62.3-58.4l17-10.1l63.6,36.6L459.9,170.9z"/>
		<path id="XMLID_39_" class="st48" d="M447.9,179.9c0,0,3.4,8.3,4.1,14.9c0,0,3.2,21.1,3,28.9l0.4,35.6c0,0-0.8,21.5-2.5,29.6
			c0,0-2.1,19.4-6.9,30.2c0,0,5.5-27.2,5.6-33.5c0.1-6.3,2.7-21.5,2-30.9l0.3-24.2c0,0-0.5-15.1-1.9-26
			C450.6,193.4,447.9,179.9,447.9,179.9z"/>
		<path id="XMLID_234_" class="st49" d="M333.7,133.1c0,0,13.4-24.6,51.8-26.2c0,0,20.4,1.4,38.8,17.8c0,0,23,19,23.8,24.2
			c0,0-20.8-16.4-24.8-14c0,0,33.8,26.3,51.5,24.9c0,0,11-0.3,14.3-5.2c0,0-2.2,7.8-12.3,12.5c-10.1,4.7-26.7,2.9-26.7,2.9
			s-22.9-3.2-32.9-10.7c0,0-25.7-18.7-35.9-27.4s-16.5-11.1-20.9-10.1c-4.4,1.1-5.3,2-5.3,2s10.9,2.5,21.1,13.5
			c10.2,11,17.8,19.8,22.2,30c4.4,10.2,8.8,20.7,8.8,20.7s12,31.8,13.7,33.9c1.7,2.1,16.5,31.5,25,36.7c0,0,8.2,4.3,21.6,4
			c13.4-0.3,16.3-3.4,17.8-4s6-4.7,5.8-7.6c0,0,3.8,3.8-2,10.5c-5.8,6.7-20.7,6.8-20.7,6.8s-12.4-0.5-16.8-3.2l-12.4-5.3l-15.4-11.1
			l-16.1-14.4c0,0-23-25.5-23-26.3c0,0-21-36.8-22.1-45.5c0,0,0.9,23.3,0.1,28.4l-3.2,17.8l-5.3,13.7c0,0-2.7,7.6-10.7,13.9
			c0,0,8.6-22.6,8.2-30.6c0,0,0-15.4-0.6-17.4c-0.6-2.1-3.1-18.8-5.7-23.4c0,0-4-10.1-7.9-12.5c0,0-2.8-1.7-6.9,6.8
			c-0.1,0.1-0.1,0.2-0.2,0.3c-4.2,8.9-2.6,17.2-2.6,17.2s-6.2-13.3-11.3-12.9c-5.1,0.5-8.9,21.5-8.9,24.5c0,3-1.8,18.2-1.4,21.6
			c0.4,3.4,0.3,21.7,0.6,23.3c0.3,1.7,3.6,21.3,4.3,22.7c0.7,1.4,1,6.5,7.5,13.5c0,0-5.7-2.7-9-11c0,0-4.4-10.5-4.8-15.1
			c-0.5-4.6,0-0.3,0-0.3s-1.5,10.2-4,17.3c-2.5,7.2-4.3,9.2-5.8,10.7c-1.5,1.5-6.6,3-6.6,3s4.4-3.7,5.4-14.9
			c1-11.2,1.6-52.7,1.6-52.7s1.3-25.3,2.7-30.7c0,0-4.4,10.2-6.2,21c-1.8,10.8-2.8,16.7-2.8,16.7s-0.9-13.9,0.9-23
			c1.8-9.1,7.4-24.3,10-26.8c0,0,10.1-16.8,16.6-23.2S327.6,133.4,333.7,133.1z"/>
		<path id="XMLID_455_" class="st50" d="M332.5,250.9c0,0-7.4,7.4-8.6,8.3c-1.1,0.9-1,3.5-0.3,4.4c0.7,0.9,7.5,7.6,7.8,8.6
			c0,0,1-1,0.1-2.4c-0.8-1.5-5.9-10.3-5.9-10.3S328.9,258,332.5,250.9z"/>
		<path id="XMLID_453_" class="st51" d="M333.2,249.3c0,0-1.9,5.3-7.6,10.1c0,0,4,8.3,5.9,10.3c0,0-5.5-9.4-5.3-10.2
			C326.2,259.5,330.4,256.5,333.2,249.3z"/>
	</g>
	<g id="Spear">
		<polygon id="XMLID_265_" class="st52" points="587.8,700.2 921.4,262.7 899.5,246.2 551.8,700.2 		"/>
		<path id="XMLID_269_" class="st36" d="M569.4,677.4c0,0,6.2,3.3,3,10.6s-10.9,3.7-10.9,3.7l0.6-4.8l-3.7,5.1c0,0,5.5,6.7,10.8,1.5
			c5.3-5.3,7.2-5.6,6.8-10.7s-0.7-7.5-3.8-8.8L569.4,677.4z"/>
		<path id="XMLID_272_" class="st36" d="M555.9,695.5c0,0,14.3,10.3,35.8-17.8c0,0,15.1-26.1,31.6-70.2l8.4-11.2
			c0,0-19.1,47.7-20.5,52.8c-1.4,5.1-10.5,25.6-10.5,25.6s-4.8,12-5.8,14.7c-1,2.7-7.4,10.7-7.4,10.7l-8.8,0
			c0,0,10.8-10.7,14.3-18.5c0,0-11.9,15.9-20.2,18.5H552l3.6-4.8L555.9,695.5z"/>
		<path id="XMLID_274_" class="st36" d="M705.2,545.5c0,0-17,11.4-39.3,40.2c-22.3,28.8-24.1,33.5-24.1,33.5s-9.3,16.4-10.1,22.9
			L620,657.4c0,0,4-11.5,6.6-15.3s2.8-5.7,2.8-5.7s1.5-5.1,5.2-9.9c3.7-4.8,7.2-15.5,19.8-31.5c0,0,18.5-28.4,32.7-45.9
			s22.1-28.2,30.2-36.6c8.1-8.4,34.6-34.9,45.7-43.2l-10.1,13.5c0,0-11.7,5.9-41.5,41.1c0,0-16.9,19.5-29.3,36.4l-16.7,21.4
			c0,0,36.8-39.2,50.4-50.2L705.2,545.5z"/>
		<path id="XMLID_267_" class="st36" d="M719.7,481.5c0,0,12.1-3.5,10.3-13.4l2.5-3.3c0,0,1.5,0.4,2.2,1.9l5.8-12.3l7.6-9.9
			l-11.4,22.7c0,0,1.6,0.4-1,4.4c-2.6,4.1-8.6,15.1-18.5,13.4L719.7,481.5z"/>
		<path id="XMLID_277_" class="st36" d="M707.2,498.1c0,0,7.1,4,12-0.5c0,0,2.3-2.5,4.4-2.2c2.1,0.3,19.4-14.5,23.7-32.8v-2.4
			c0,0-0.4-1.1,0.5-1.5c0.9-0.3,1.9-1.5,2.3-3.5c0.4-2,21.1-41.6,21.1-41.6l36-47c0,0,19.5-14.8,25-18.1s26.5-24.7,28.5-27.6
			c0,0-1.6,1,4.7-8c6.3-9,8.6-15.3,8.8-33.7l8.4-11c0,0,2.2,21.2-8.3,39L867,319c0,0-0.7,1.6-1.7,1.5c-1-0.1-1.6,2-1.6,2
			s0.6,0.5-0.9,2.2l-0.9,1.1c0,0-0.2,0.7-0.9,0.5c0,0-18.9,21.4-28.1,28c-9.2,6.6-12.5,9.6-12.5,9.6s35.4-18.6,42.7-24.9l-8.4,11.1
			c0,0-25.9,12.1-30.1,14.7c0,0-2.4,0.8-3.3,1.8s-3.9,2.4-3.9,2.4l-5.9,3.3c0,0-2.7,1.2-4.3,2.7c-1.6,1.6-10.6,10.7-10.6,10.7
			s-1.1,0.7-1.1,1.5s-1.5,1.6-1.5,1.6s-0.9,0.1-2.1,1.5s-13.7,17.4-19.8,27.1c-6.2,9.7-12.8,23.2-12.8,23.2s-1.5,1.9-5,12.1
			c0,0-2,3.9-1.8,6.3c0.2,2.4,0,3.7-1.3,4.6s-4.1,10.5-8,16.4c-3.9,5.9-8,11.3-13.5,15.9l-2.2,1.8c0,0-1.7,0.4-2.3,2.1
			c-0.5,1.7-3.5,2-3.5,2s-9.9,8.5-18.8,1.4L707.2,498.1z"/>
		<path id="XMLID_236_" class="st36" d="M806.5,413.1c0,0-19.6,10-15,19.9l-6.2,8.1c0,0-4.7-10.8,0.7-20.3
			c5.4-9.5,19.5-15.8,25.1-13.6L806.5,413.1z"/>
		<polygon id="XMLID_275_" class="st53" points="967.4,202.5 904.8,276.9 904.8,263.9 888,264.1 950.4,183.3 		"/>
		<path id="XMLID_282_" class="st54" d="M947.8,229.2c0,0,4.6,1.4,2.5,5c0,0-2.2,3.1-5.3,4.9c-3.1,1.8-9.9,10.1-9.9,10.1
			s-4.4,5.2-10.3,17.1c0,0-2,5.1-4.6,5.1c-2.6,0-3.9-0.7-3.9-0.7S931.3,233.4,947.8,229.2z"/>
		<path id="XMLID_308_" class="st30" d="M903.5,251.9c0,0,1.6-2.2-1-0.6c-2.6,1.6-14.9,8.9-14.9,8.9l-5.1,6.3l7.1-1.8l6.2-3.5
			C895.7,261.1,900.7,257.5,903.5,251.9z"/>
		<path id="XMLID_305_" class="st30" d="M916.2,263.3c0,0,0.7-4.8-1.4-1.6c0,0-4,5.5-5.1,6.4c-1,0.9-3.1,3.3-3.1,3.3l-0.8,14.2
			l8.7-11.6L916.2,263.3z"/>
		<path id="XMLID_290_" class="st54" d="M927.7,211.8c0,0-3.3-1.4-5.2-1.2c-1.9,0.2-3.1,1.3-4,3.7c-1,2.4-3.2,9.8-17.1,24.2
			l-7.6,7.5c0,0-1.5,1.7-1.7,3.3c-0.2,1.6-0.4,3,0.5,4C893.4,254.3,920.5,234.9,927.7,211.8z"/>
		<g id="XMLID_286_">
			<g id="XMLID_572_">
				<g id="XMLID_575_">
					<path id="XMLID_576_" class="st30" d="M960.7,176.6v-8.3c0,0,0.1-1.7,2.6-2.1c2.6-0.5,15.2-3.8,16.5-4.1l-11.7,18l-7.8-3.5"/>
				</g>
				<g id="XMLID_573_">
					<path id="XMLID_574_" class="st30" d="M974.3,185.5l7.6-3.3c0,0,1.5-0.7,0.9-3.2s-2.6-15.5-2.9-16.7l-11.8,18l6.3,5.8"/>
				</g>
			</g>
		</g>
		<g id="XMLID_315_">
			<polygon id="XMLID_300_" class="st55" points="951.8,213.6 945.1,215.3 944.8,212 952.5,210.2 952.9,201.1 951.1,199.5 
				942.5,202.6 942.5,210.4 939.6,210.8 939.4,201.5 937.1,202.7 937.1,211.3 930.7,212.5 930.7,220.9 937.4,219.2 937.4,226 
				945.5,224.7 945.1,217.3 955,215 954.7,212.7 			"/>
			<polygon id="XMLID_310_" class="st53" points="950.3,201.9 950,208.4 944.8,209.5 944.4,204.2 			"/>
			<polygon id="XMLID_311_" class="st53" points="942.5,212.8 942.5,215.5 939.7,216 939.7,213.2 			"/>
			<polygon id="XMLID_312_" class="st53" points="942.5,218.2 942.7,222.9 939.7,223.1 939.7,218.4 			"/>
			<polygon id="XMLID_313_" class="st53" points="937.1,214 937.1,217.2 932.8,218 932.8,214.4 			"/>
		</g>
		<path id="XMLID_280_" class="st56" d="M887.2,260.8V258c0,0-0.4-0.5,1.1-2c1.5-1.5,3.8-4.3,6.8-5.3c0,0,18.8-15,24.5-26.5l4.2-7.6
			c0,0,0.6-0.9,0.6-3s-0.2-3.5-0.2-3.5s-0.1-0.9,0.3-1.5s12.3-27.1,12.3-27.1s0.7-3.3,6-4.5c5.3-1.2,29.8-4.7,29.8-4.7l4.1,25.2
			c0,0,1.9,8.3-2.3,11.8c-4.2,3.5-23.3,19.5-23.3,19.5s-0.7,0.7-2.8,1.1c-2,0.5-3.7,0.7-6.5,3.6c-2.8,2.9-11.5,12.2-14.3,17.2
			c-2.9,5-8.5,16-10,20.9s-4.3,7.1-6,7.1c-1.7,0.1-1.8-2.4-0.6-5.8s9.5-24,19.2-35.4c9.8-11.4,23-20.8,23-20.8s2.3-12.9,3.2-14.9
			c0.9-2,1.4-4.6,1.8-8.2c0,0-0.4-1-1.1-1c-0.7,0-15.1,7.4-19,10.1c0,0-2.6,1.4-3.4,4s-7.9,17-7.9,17s-2.3,4.7-4.6,7.6
			c-2.3,2.9-10.5,11.8-10.5,11.8s-14.1,13.1-19.2,15.8c0,0-2.1,1.3-3.9,1.8C888.7,260.8,888.3,260.9,887.2,260.8z"/>
		<path id="XMLID_287_" class="st56" d="M896.8,298.3l-0.7-3.7c0,0-0.1-1.7,1.4-2c1.5-0.3,9-5.8,9-5.8l0.4-8.9c0,0,0-1.7,0.4-2.5
			c0.5-0.8,2.2-4.6-1.6-14.4c0,0-11.4-1.9-14.7,2.1c0,0-1.1,1.6-7.3,2.8l-2.2,0.5c0,0-2,0-2.2,2.1c-0.2,2.1-2.2,9.5-2.2,9.5
			s-3.2,1.7-5.2,1.5c0,0-1-0.1-1,1c0,1.1-0.3,1.3,0.6,1.4c0.9,0.1,5,0.2,8.2-0.7c0,0,1.4,0,1.8-3.2c0.5-3.2,1.1-5.1,1.1-5.1
			s0.5-1.9,3.1-2.3c2.6-0.5,5.4-0.6,5.4-0.6l4-4c0,0,1.1-1.2,3.2-1.4c2.2-0.2,3.9-0.3,3.9-0.3l0.1,0.7l0.7-0.1c0,0,1.3,0.6,0.9,5.7
			c0,0-0.3,2.1-1.3,3.3c-1,1.2-1.8,3.1-1.8,3.1l0.5,5.5c0,0,0.8,2.2-1.2,3.4c-2,1.2-7.2,4.1-7.2,4.1s-0.3,6.7,0.7,9c0,0,0,1.2,1.2,1
			C896,299.7,897,299.4,896.8,298.3z"/>
	</g>
	<g id="Vision">
		<path id="XMLID_391_" class="st57" d="M147.2,452.1l1.5,7.2l7.1,7.4l1.8-0.8l2.4,3.4l-3,1.1c0,0-0.7,0.6-2.3-1.1s-8.6-8.6-8.6-8.6
			l-1.6-9.2L147.2,452.1z"/>
		<polygon id="XMLID_388_" class="st57" points="167,445 169.3,453.3 167,462.9 165.1,463.9 165.2,467.2 169.7,465.6 173.4,453 
			171.3,443.4 		"/>
		<path id="XMLID_385_" class="st57" d="M164.9,437.5l-1.4-7.5l-6.1-6.4l-4.8,2l-2.3-2l-0.4,2.8l-4.1,2.1l-2.9,5.6l1.1,7.6l-1.9,3.6
			l-1.7-10.4c0,0-0.2-1.2,0.2-2.2s2.7-7.4,2.7-7.4s3.2-2.3,3.7-1.7l1.7-7.3l5.1,6.3l4.8-3.2l7.2,7.8l1.2,5.6L164.9,437.5z"/>
		<path id="XMLID_317_" class="st58" d="M182.3,392.2c0,0,1.6,8.5-1.4,29.1l-3,20.7c0,0-1.3,9.7-3.8,14.4l-1.1-8.1
			c0,0,1.7,1.2,3.5-11.5c1.8-12.7,3.6-30.6,3.6-30.6s1-9.3,0.4-12c-0.6-2.7-0.8-5.4-0.8-5.4l2.2,1.2L182.3,392.2z"/>
		<path id="XMLID_344_" class="st59" d="M174.3,437.5l-4.6-3.9c0,0-2.1,0.8-2.8-0.9c0,0-2.7,2.5-2,4.8l2.6,2.6l-1,4.6l2.4,1.4l1.7-2
			l2.6,0.2C173.1,444.3,172.7,441.7,174.3,437.5z"/>
		<path id="XMLID_352_" class="st59" d="M168.9,428c0,0-0.1,3.6,0.3,4.2c0.4,0.6,0.7,1.6,0,2.1c0,0-1.7,0.4-2.3-1.1l-1.2-6.1
			l-7.2-7.8h2.2C160.8,419.4,168.4,426.4,168.9,428z"/>
		<path id="XMLID_355_" class="st59" d="M173.1,444.1c0,0,0.1,4.6,2,8.7c0,0,0.3,0.9,0,1.3h-2.6c0,0,0.3-0.8,0-2.2
			c-0.3-1.4-1.6-4.9-1.3-7.8H173.1z"/>
		<path id="XMLID_366_" class="st59" d="M175.2,453.8l-2.3,11.5c0,0-0.1,1.1-0.8,1.1c-0.7,0.1-2.6-0.6-2.6-0.6s3.1-10.7,3-11.8
			L175.2,453.8z"/>
		<path id="XMLID_373_" class="st59" d="M172.7,466.1c0,0-0.3,1-3.9,1.5c0,0-2,0.5-2.3,1.8c-0.4,1.3-1.3,2.6-2.7,2.5
			c0,0,1.1-2.7,0.5-4.2l5.5-2.1L172.7,466.1z"/>
		<polyline id="XMLID_375_" class="st59" points="165.9,464.7 163.7,472.3 157.4,467.2 158.1,462.3 161.1,464.8 162,461.2 
			166,464.6 		"/>
		<path id="XMLID_378_" class="st59" d="M160,469.3l-3,1.1c0,0,0.1,1.6,1.1,1.2c1-0.4,3.2-1.3,3.2-1.3L160,469.3z"/>
		<path id="XMLID_380_" class="st60" d="M168.3,467.7c0,0-2.3,5.4-4,6.2c0,0-2-0.5-3.7-3.3l-1.8,0.7c0,0,3.2,4,4.7,4.7
			c0,0,1.1,1.1,2.4-0.3c1.3-1.4,4.4-4.3,4.8-8.6L168.3,467.7z"/>
		<path id="XMLID_382_" class="st59" d="M156.3,420.6l-2.5,2l-5.1-6.3c0,0,2.1-1.7,3.3-0.3C153.3,417.4,156.3,420.6,156.3,420.6z"/>
		<polygon id="XMLID_390_" class="st59" points="146.3,443.3 145.8,447.5 148.4,450.3 146.4,453.2 141.1,448.6 143.6,441.3 		"/>
		<polygon id="XMLID_392_" class="st61" points="158.9,425.1 152.7,425.6 157.5,423.6 		"/>
		<polygon id="XMLID_393_" class="st60" points="163.7,430.8 158.3,425.2 152.7,425.6 164.9,437.5 		"/>
		<polygon id="XMLID_395_" class="st60" points="148.5,427.2 144.7,442.2 144.1,441.7 143.1,434.1 145.9,428.5 		"/>
		<polygon id="XMLID_397_" class="st61" points="150,426.5 146.3,443.3 144.7,442.2 148.5,427.2 		"/>
		<polygon id="XMLID_398_" class="st60" points="169.1,452.5 166.3,463.1 165.1,463.8 162,461.2 166.5,444.7 167,445 		"/>
		<path id="XMLID_400_" class="st60" d="M157.7,465l-7.3-7.7c0,0-0.7,1.4,0.5,2.6c1.2,1.3,6.1,6.3,6.1,6.3l-1.3,0.5l-7.1-7.4
			l-1.5-7.2l1.1-1.7l9.7,12L157.7,465z"/>
		<line id="XMLID_402_" class="st62" x1="150.4" y1="423.6" x2="167.5" y2="440.1"/>
		<path id="XMLID_403_" class="st63" d="M150.6,422.5c0,0,14.9,15.7,17.9,17.2c0,0-7.3,25-7.2,26.1c0.1,1.1-11.2-14-16.5-18.1
			L150.6,422.5z"/>
		<g id="Anemo">
			<path id="XMLID_408_" class="st64" d="M151.1,429.7c0,0,1.2,1.1,1.3,1.6c0,0-0.7,0.1-0.1,0.9c0,0,2.3,2.8,2.4,3.2
				c0.1,0.4,0.1,0.5-0.3,0.3c0,0-1.2-0.2-1.5,1.6s-0.2,4.4,0.6,4.9c0.8,0.5,1.5,1.1,3.2,0.9c1.7-0.2,2.5,0.2,3.3,1
				c0.8,0.8,2.2,2.1,2.3,4.6c0.2,2.5-0.4,1.7-0.4,1.7s-2.8-5-5.1-5.3c-2.4-0.3-4.6-2.8-4.7-3.5C152,440.8,151.1,429.7,151.1,429.7z"
				/>
			<path id="XMLID_418_" class="st64" d="M154,437.9c0,0-0.9,1.6,0.2,2.7s2.1-1.1,2.1-1.1s1.4-2.4,3.2-1c1.8,1.5,3.3,5.8,2.9,6.7
				c0,0-3.4-3.7-5.9-3s-3.3-1.4-3.3-1.4s-0.8-2.2,0.3-3.8c0,0,0.5-0.8,1.2-0.1C154.7,436.9,155.3,437.8,154,437.9z"/>
			<path id="XMLID_420_" class="st64" d="M153.4,444.8c0,0,3.9-0.2,6.2,2.8c2.2,3,1.9,6.9,0.7,8.6
				C160.3,456.2,159.9,449.6,153.4,444.8z"/>
			<polygon id="XMLID_422_" class="st65" points="150.5,425.7 152.4,446.6 161,462.7 145.5,447.7 			"/>
			<path id="XMLID_421_" class="st66" d="M150.9,432.7l0.1,3.3c0,0-0.8,0.5-1.2,0.8c-0.4,0.3-0.2-0.3-0.2-0.3L150.9,432.7z"/>
			<path id="XMLID_423_" class="st66" d="M150.7,437c0,0-1,0.3-0.7,1.1s0.7-0.3,0.7-0.3l0.3-0.2v-0.7L150.7,437z"/>
			<path id="XMLID_424_" class="st66" d="M151.4,442.6c0,0-2.2-0.1-2.4,4.3c0,0-1.3-1-0.9-6.1c0,0,0.7-2.5,3.4,0.5V442.6z"/>
			<path id="XMLID_425_" class="st66" d="M151.3,443c0,0-3.1,1.6-0.5,7.8c0,0,0.1-6.4,0.6-5.1L151.3,443z"/>
			<path id="XMLID_426_" class="st66" d="M151.7,445.9c0,0-3.4,5.6,4.6,11c0,0-3-4.8-3-7.1L151.7,445.9z"/>
			<path id="XMLID_410_" class="st67" d="M150.6,422.5l-0.1,4.3l14.7,14.5l3.3-1.6C168.4,439.7,165.9,438.8,150.6,422.5z"/>
			<path id="XMLID_411_" class="st67" d="M165.1,441.2l-5.3,19.7l1.5,4.9c0,0,1.9-7.8,7.2-26.1"/>
			<path id="XMLID_413_" class="st67" d="M159.8,461l-13.4-13.7l-1.6,0.4c0,0,15.4,17.7,16.5,18.2l0.2-0.9l-1.7-4V461z"/>
			<polygon id="XMLID_427_" class="st67" points="150.6,422.5 144.7,447.7 146.3,447.3 150.4,426.9 			"/>
		</g>
	</g>
	<g id="Mask">
		<path id="XMLID_368_" class="st68" d="M190.6,144.1c0,0-1.9,6.1,0,16.9l-26.2-11.4c0,0-2-1.2-3.8,0.2s-8.7,3.5-8.7,3.5l15.3,19.7
			l30-5.6L190.6,144.1z"/>
		<path id="XMLID_459_" class="st69" d="M227,352.6c0,0,15.5-2.3,19.6-4.7c4.1-2.4,12.8-9.6,12.8-9.6s14.9-11.8,17.8-15.7
			s7.7-10.4,12.4-24l-2.9-5.3l-0.4-15l2.7-24.4l3-26l-12.5-11.4l3.5-8.9l-6.1-8.1l-36.9-36.6L227,152.7l-35.4-2.5l5.5,20.5
			c0,0,5.3,11.7,6.6,13.3s-4.3,14.4-4.3,14.4l-16.1,25.3l-0.5,23.4l1.5,13.2l12,26.5l9.6,38.7l16.8,7.3l-0.7,6.1l-0.4,3.7L227,352.6
			z"/>
		<path id="XMLID_445_" class="st70" d="M285.7,309.3l-1-0.3c0,0,3-8.8,3.6-9.9c0,0,0.6-0.8-0.2-1.5c-0.9-0.7-3.3-3.9-3-10.1
			c0.3-6.3,0.1-11.1,0.1-11.1s-0.1-5.7,0.8-13.9s1.1-9.9,1.2-19.6c0.1-9.8,0.6-13.4,0.6-13.4s-9.9-1.4-14.3-7.8
			c-4.4-6.4-6-9.9-6.7-14.1l-8.4-0.7c0,0-1.8,0.4-3.3-1.8c-1.5-2.2-10.6-13.6-10.6-13.6l7.1-1l9,11.8c0,0,21,3.7,23.5,2.8l14.8,13.6
			c0,0,0.8,1.2-1,1.9c-1.7,0.7-5.4,0.9-6.6,0.8c-1.3-0.1-0.4,3.1-0.4,3.1s2.1,3,9.1,4.1c0,0,3.6,0.9,0.9,4.9
			c-2.7,4.1-11.7,30.1-11.7,30.1s-1.5,6.5-1.7,13.2c-0.2,6.6-2,14.3,2.1,20c0,0,1.5,1.1,0.9,2.3S286.3,308.5,285.7,309.3z"/>
		<path id="XMLID_492_" class="st71" d="M241.6,334.2l-0.4,4.2c0,0-0.1,1.3-1.1,2.4c-1,1-1.9,2.7-0.5,4.1c1.4,1.5,2.9,3.7,2.9,3.7
			l-3.7,1.7c0,0-5.4-4-4.4-8c0,0,0.9-1.9,2.4-3.2c1.6-1.3,1.4-6.6,1.4-6.6h3.6L241.6,334.2z"/>
		<path id="XMLID_458_" class="st72" d="M285,308.1c0,0-5,15-19.6,24l-10.1,8.7c0,0-6.3,5.7-11.4,6.9c0,0-2.1-0.2-5.1-3.8
			c0,0,0.8,3,3.5,4.5c0,0-1.4,1-2.8,0.8c0,0-4.5-3.2-4.8-3.8c0,0-0.6,2,3.5,4c0,0-4.7,2.5-10.4,2.5c0,0-1.2,0-5.2-9.1
			c0,0-0.8-1.8-0.2-3s1.4-3,1-8l-1.9,0.1c0,0,0.7,5.2-0.9,8.2c0,0-0.7,1.4,0,2.7c0.7,1.3,5.5,10.3,5.5,10.3s1.8,0.7,6.6-0.9
			c0,0,10.4-2.1,11.9-2.3c1.5-0.3,4.3-0.8,6.6-3.9c0,0,2.1-1.1,4-3.3c1.9-2.2,7.2-6.3,7.2-6.3l6.4-4.7c0,0,6.7-5.8,8.9-9
			c2.2-3.2,4.7-5.8,8.4-14.3C286.1,308.5,286,307.3,285,308.1z"/>
		<path id="XMLID_457_" class="st68" d="M285.6,206.7c0,0-4.3-4.7-7.1-7.5c-2.8-2.8-32.4-37.5-41.7-48.9l-2.1-2.5
			c0,0-10-3.4-14.8-4.4c-4.8-1-9.3-2.9-18.9-10.6c0,0-5.2-4.6-10.2-5.6l-7.5-2.1l8.3,24.9c0,0,16.9,6.5,26.8,3.6
			c0,0,27.2,40.4,29.2,41.8l6.8-1.1l-22.2-30.8c0,0-1.6-3.9,1.7-0.6s33.8,38.2,33.8,38.2s8.4-0.9,11.2,3.8L285.6,206.7z"/>
		<path id="XMLID_371_" class="st73" d="M198.1,165c0,0-3,1.6-4.5-0.8c0,0-1.1,4.4-5.7,2.3c-4.6-2.1-10.4-4.4-10.4-4.4
			s-1.1,4.5-11.8,1.1c0,0,4.1,8.9,1.6,9.7l8.3,8.8c0,0-15.4-5.3-22.9-10.7l1,6.6c0,0,0.2,2.8,2.6,4.9l15.9,19.1c0,0,2.8,2.7,5,4
			c2.3,1.3,6.2,3.7,6.2,3.7l-1.2,27.2c0,0-0.3,4.8-0.2,7.8c0.2,3,3.2,27.9,3.2,27.9l0.1-13.8l-1.5-16.4c0,0,0-3.5,1.2-5.6
			c1.2-2.1,11.5-43.6,11.5-43.6l8-8.5L198.1,165z"/>
		<path id="XMLID_464_" class="st69" d="M196.2,164.5l-0.5,1.1l1.4,5.4c0,0,6,13.6,6.6,13.9s2.8-3,2.8-3l-8.1-17.6L196.2,164.5z"/>
		<path id="XMLID_467_" class="st74" d="M195.2,183c0,0,7.2,25.6,5.9,33c-1.3,7.4-5.9,17.5-5.9,17.5l-1.4,12.9
			c0,0,14.9-22.6,8.6-43.7l9-2.1c0,0-6.6,6.5,5.2,15.1c0,0-17,5.3-6,18.2l-18.3,22.3l-3.4-0.2c0,0-0.7-14.9-5-22.9
			c0,0-2.1-20.1,0.9-33c3-12.9,6.9-21.1,6.9-21.1L195.2,183z"/>
		<path id="XMLID_466_" class="st73" d="M195.8,179.1c0,0-3.1,8.3-1.4,26.8c1.7,18.5-3.6,24.6-3.6,24.6s1.4,6.3,0.6,9.7l-2.7-7.4
			c0,0-0.4-0.9-0.1-2.2c0,0-4.6-10.8-2.6-27.4C186.1,203.2,189.6,181.9,195.8,179.1z"/>
		<path id="XMLID_461_" class="st75" d="M211.1,186.2c0,0,9.2,3.5,7.7,15.6c0,0-2.6,7.8-9,7.4c0,0-12.8-5.8-18.6-32.8
			C191.1,176.4,201.6,184.8,211.1,186.2z"/>
		<path id="XMLID_474_" class="st76" d="M243.8,241.4c0,0,0.7-1.7,0.7-4c0,0,6.7,7.9,0,24.9c-6.7,17-18.1,12.5-18.1,12.5l14.6-23.5
			L243.8,241.4z"/>
		<path id="XMLID_482_" class="st22" d="M223.7,217.6c0,0,17.9,1.6,26.5,8c0,0,4.9,4.2,5.3,12.5c0.5,8.3,0.9,13.7-0.3,18.2
			c-1.1,4.5-0.7,12.2-0.7,12.2s-8.6,11.9-13,13.7l-5.8-5.5c0,0-0.3,9.3,2.9,16.4l-8-0.5c0,0-3.6-2.4-3.7-5.3
			c-0.1-2.9-0.4-10.2-0.4-10.2l18.6-17.9c0,0,4.5-8.5-0.3-22.3c0,0-2.9,8.9-3.5,10.1s-1.6,2.9-3.9,4.1c-2.3,1.2-11.5,3.4-11.5,3.4
			s-7.8,2.7-10.3,5.3c-2.5,2.6-5.5,7.8-4.2,12.4c1.3,4.6-8.9,5.3-8.9,5.3l-5.3-4.1l0.8-11.7l21.3-12.6c0,0,3.4-3.3,16.5-4
			c0,0,3.2-7.7,3.5-10.4c0.3-2.7-0.6-3.7-0.6-3.7S229.1,220.5,223.7,217.6z"/>
		<path id="XMLID_469_" class="st77" d="M243.8,241.4c0,0,1.4,18.6-4.7,26s-28.2,11.9-28.2,11.9s-4.1-12.4,7.8-21.4
			c0,0,8.6-4.5,14.1-4.8C238.4,252.6,242.1,247.7,243.8,241.4z"/>
		<path id="XMLID_485_" class="st78" d="M276.7,291l-8,16.8l-15.9,16.4l-12.9,5.3l-24-2.5l4.4-12.9l6.3-3.4l7.7-1.2l2.9,0.7l6.6-3.3
			l5.5-9.6c0,0,3-4.2,9.6-4.3c6.6-0.1,13.3-3.2,13.3-3.2l3.9-0.4L276.7,291z"/>
		<path id="XMLID_496_" class="st79" d="M231.2,311.4c0,0,0.2,6-2,8.7c-2.2,2.8-1.9,1.9-1.9,1.9s-0.8-4.5-4.5-8.4l7.3-4
			C230.1,309.5,231.3,310.3,231.2,311.4z"/>
		<path id="XMLID_484_" class="st71" d="M276.8,287.4l6,4.4c0,0-1.8,1.2-3,1.2s-3.8,1.4-4.4,3.4c-0.5,2-2.7,12.7-9,17.1l-4.6,5.9
			l-9.1,8.3l-6.5-1.8c0,0,11.4-9.1,13.9-12.1c2.5-3,2.5-3,2.5-3l5.2-7.4c0,0,1.6-5.8,2.2-9.5c0,0,4-2.1,5.5-2.9c0,0-5.6,1.1-7.2,1.8
			c-1.6,0.8-3,3.9-3,3.9l-21.4,11.2l-6.4,3.7c0,0-1.1,0.9-2.6,0.2c-1.5-0.7-3.4-0.7-3.4-0.7l-10.5,3.2l3.5-6l5.9,1
			c0,0,2.9-1.2,5-0.3c2.1,0.9,5.5-1.7,5.5-1.7l7.6-9.8c0,0,0.8-4.9,13.3-6.8c0,0,5.3-0.8,8-2.2l4.1-1.4
			C274.1,286.9,275.2,286.2,276.8,287.4z"/>
		<path id="XMLID_494_" class="st71" d="M220.7,318.8c0,0,2.8-4.4,5.4-6.8c2.5-2.4-2.7-2.9-2.7-2.9l-13.4,8.4l1.5,4.8L220.7,318.8z"
			/>
		<path id="XMLID_489_" class="st80" d="M253.1,327.1c0,0,1.5-7.3-10-12.9c0,0,2.2,6.4-0.5,10.5L253.1,327.1z"/>
		<path id="XMLID_483_" class="st80" d="M284.5,324.3c0,0-14.9-5.3-17.7-25.3c0,0-2.5-6.8-10.5-5c0,0-6.9,1-6.4,5
			C250.4,303,249.2,322.4,284.5,324.3z"/>
		<g id="Shards">
			<path id="XMLID_502_" class="st81" d="M278.3,161.3l-1.8,2.9c0,0-3.3,3.6-2.9-1.5l0-2.1c0,0,1.8-2.6,4.1-1.4
				C277.7,159.3,278.9,160.2,278.3,161.3z"/>
			<path id="XMLID_505_" class="st81" d="M256.8,166.9c0,0-2.1,2.3-2.6,2.6c-0.6,0.3-1.6,1.2-2.5,2.4c-1,1.2-1.6-1-1.6-1
				s-0.4-2.6,0.8-5.2c1.2-2.6,2.2-0.6,2.2-0.6s0.3,1.1,1.8,0.4C256.3,164.7,257.6,165.9,256.8,166.9z"/>
			<path id="XMLID_499_" class="st81" d="M231.6,195.4v4.2c0,0,0.1,2.6-1.4,0c-1.4-2.6-1.3-1.9-1.3-1.9S231.6,193.7,231.6,195.4z"/>
			<path id="XMLID_508_" class="st81" d="M225.1,175l-5.1-6.8c0,0-1.1-1.3-1.4,0c-0.4,1.3-0.8,3.5-0.5,3.9S225.1,175,225.1,175z"/>
			<path id="XMLID_477_" class="st81" d="M241.4,160.3l-3.4-3c0,0-0.9-1.1-1.4,0s-1.1,2.3-1.1,2.3s-0.5,0.9,1,1.2
				c1.4,0.3,4.2,1.1,4.2,1.1S244.2,162.7,241.4,160.3z"/>
			<path id="XMLID_480_" class="st81" d="M273,127.5c0,0,1.6-2.6-2.1-2.9c-3.7-0.3-16.2-3.6-16.2-3.6s-3.1-0.9-2,1.3
				c1.1,2.2,3.3,7.2,3.3,7.2s0.3,1.4,2.2,2.5s7.5,5.2,7.5,5.2s0.7,1,1.7-0.7C268.4,134.8,273,127.5,273,127.5z"/>
			<path id="XMLID_512_" class="st81" d="M175,160.8c0,0,1.6,0.7,0.5,1.8c-1.1,1.1-2.3,0.4-2-0.5l-2.7-2.4c0,0-0.6-0.6,0.8-0.3
				s2.6-0.7,2.6-0.7L175,160.8z"/>
			<path id="XMLID_510_" class="st81" d="M186.6,218.3c0,0,0.6-2.2-1.4-1.2c0,0-0.7,0.3-0.7,0.4s-0.2,3.6-0.2,3.6l2.9-2L186.6,218.3
				z"/>
			<path id="XMLID_514_" class="st81" d="M194,208.8l-0.3,0.6c0,0,0.6,1.1-0.4,2s-1.1,0.9-1.3,0.5
				C191.9,211.5,190.8,209.3,194,208.8z"/>
			<path id="XMLID_516_" class="st81" d="M225.2,124.9l-1.5,1.7c0,0-1.4,1.1-2.2-0.5c-0.8-1.6-0.5-2.9-0.5-2.9s-1.1-1.9,1-1.8
				l3.2,2.1C225.2,123.5,226.3,124.3,225.2,124.9z"/>
			<path id="XMLID_517_" class="st81" d="M229.4,109.5c0,0-4.8-7.9-8-9.3s-5.8-7.7-5.8-7.7s-4.4-7.6-6.9-8.5l-4.9-2c0,0-2-0.6-3,0.8
				c-1,1.4-9.4,13.8-9.4,13.8s-1.6,1.4,0,2.4c1.6,1,14,9,14,9s0.8,0.7,3.8,1.5c3,0.8,16.5,3.2,16.5,3.2l5.2,1.1c0,0,4.5,0.9,1.1-2.4
				C231.9,111.4,229.7,109.8,229.4,109.5z"/>
			<path id="XMLID_515_" class="st81" d="M230.3,74.1c0,0,0.3-1.7,0-3.1s-1.4-4.1-0.9-6.1c0.5-2-2-1.8-2-1.8s-5.1-0.5-8.6-3.6
				c-3.5-3.1-1.4,6.2-1.4,6.2l8.3,13c0,0,1.5,1.3,2.9-1.2C229.9,75,230.3,74.1,230.3,74.1z"/>
			<path id="XMLID_521_" class="st81" d="M173.3,77.3l8.4-15.2c0,0,0.9-1.3,0.4-3.2c-0.6-2-1-4.1-1-4.1s-0.2-0.7-3.3-3.8
				s-28.4,0-28.4,0l5.6,15.1c0,0,0.5,1.5,1.4,2.2c0.9,0.7,6,11.4,6,11.4s0.3,0.7,2,0.9c1.7,0.2,4.9,0.5,4.9,0.5s0.7,0.1,1.6-0.9
				C171.8,79.2,173.3,77.3,173.3,77.3z"/>
			<path id="XMLID_522_" class="st81" d="M201.6,116.1c0,0-1.9-3.9-4.4-5.4c0,0-1-0.9-2.1,0.7c-1.1,1.6-2.9,3.2-2.9,3.2
				s-0.4,0.9,1.4,1.5s5,2.1,5,2.1s1.6,0.4,2.3,0.2C201.7,118.3,201.8,116.7,201.6,116.1z"/>
			<path id="XMLID_523_" class="st81" d="M176.3,105.2l-6-9.2c0,0-2.4-2.5-2.4,0.5s-0.2,12.5-0.2,12.5s0.2,2.5,2.1,1.3
				c1.9-1.2,6.2-2.1,6.2-2.1S177.6,107.2,176.3,105.2z"/>
			<path id="XMLID_524_" class="st81" d="M141.5,68.3v3c0,0-0.5,2.5-2.2,0.9s-4.4-5.6-4.4-5.6s-0.8-2,1.7-1.3
				c2.4,0.6,4.2,1.5,4.2,1.5S141.5,67.4,141.5,68.3z"/>
			<path id="XMLID_526_" class="st81" d="M155.9,114.2c0,0-9.4-7.3-15.6-18.6c0,0-1.6-2.9-2.1,0.3c-0.5,3.2-2.1,14.1-2,15.7
				c0.2,1.6,1.7,3.3,3.1,3.7s6,3.5,6,3.5s2.3,2.7,4.1,1.5s6.8-3.1,7-3.1C156.6,117.1,158.5,116.7,155.9,114.2z"/>
			<path id="XMLID_525_" class="st81" d="M161.1,137.6l-26-18.2c0,0-2.4-2.6-2.3,0c0.1,2.6-0.8,20.8-1.3,22.3
				c-0.5,1.5,5.2,4.9,8.5,5.3c3.3,0.5,11.7-1.7,18.9-5.1c0,0,1.3-0.6,1.7-0.1S163,138.9,161.1,137.6z"/>
			<path id="XMLID_527_" class="st81" d="M123.8,158.7c0,0-5.6-5-4.1-13.9c0,0,1.1-4.9-3.2-1.2s-4.2,4.1-4.2,4.1l-4.1,0.8
				c0,0-1.4,0.2-2,1.1c-0.6,0.9-1.1,1.7-1.1,1.7s-0.4,1,0,1.9c0.4,0.9,0.8,4.6,0.8,4.6s0.4,1.9-0.4,3.2c-0.8,1.3-3.1,4.7-3.1,4.7
				v2.3l5.6,2c0,0,0.8,1.1,2.8-0.5c2-1.5,12.8-8.3,12.8-8.3S125.3,159.6,123.8,158.7z"/>
			<path id="XMLID_529_" class="st81" d="M142.3,169.3l-1.3,4.1c0,0-0.5,0.9-1.2,0.7c-0.7-0.2-4.1,3.8-4.1,3.8s-0.7,0.8-1.8,0
				c-1.1-0.8-7.2-4.7-7.2-4.7s-4.2-1.8,0.6-3.9c0,0,5.9-0.6,7.9,1c0,0,2.4-0.2,3.5-1.6l3.1-0.6C141.9,168.1,142.8,167.9,142.3,169.3
				z"/>
		</g>
	</g>
	<g id="Gloves">
		<path id="XMLID_449_" class="st47" d="M197.3,364.9c0,0,4.4-2.2,9-13.8c0,0,3-8.1,4.4-9.5c1.3-1.4,1.5-0.9,2.2-3.8
			c0.7-2.9,3.9-4.7,3.9-4.7s6.6-0.6,10.4,0c3.8,0.6,7.9-1.3,7.9-1.3s1.4-0.8,3.4,0.8s14.4,5.7,15.9,5.5c0,0,7,0.8,9.2-0.5
			c2.2-1.2,7-4.9,4.3-7.3c0,0-0.1-0.3-1,0.1c-0.9,0.5-12.2-1-22.5-8.2c0,0-1.7-1.6-4.6-1.6c-2.9,0-13.9-0.5-18.3-1.7
			c-4.4-1.2-11.6-1.5-11.6-1.5s14.5-2.3,23.5-10.7c0,0,2-1.5,5.5-0.2s11,2.1,11,2.1s2-0.1,3.6,0.6c1.6,0.8,9.1,3.1,12.6-0.1
			c3.5-3.3,2.5-6.6,2.5-6.6s0.2-0.9-1.2-0.4c-1.4,0.5-29.5-8.9-31.4-10.3c-1.9-1.5-5.9,1.1-5.9,1.1s-23,14.2-30.1,12.5
			c0,0,7.2-7.5,9.6-11.6s9.1-7.6,9.1-7.6s5.1-3.2,5.9-5.1c0.8-1.9,10.2-3.2,10.2-3.2s2.9-0.3,6.2-3.4c0,0,1-1,6-2
			c5-1,9.9-5.3,10.4-10.4s-0.3-6.2-0.3-6.2s-0.1-1.4-1.7,0c-1.7,1.4-6.2,2.2-6.2,2.2s-1.5-0.6-4,0.8c-2.5,1.4-15.8,6.9-24,6.4h-1.9
			c0,0-12,11.2-16.7,11.9c0,0-1.6,0.7-2.4,1.7s-5.8,7.7-8.7,8.3c0,0,5-9.6,7.9-21.4c0,0,0.4-1.3,2.6-2.4c2.1-1.1,6.5-3.6,11.6-8.4
			c5.1-4.8,5.8-6.2,5.8-6.2s4.6-6.2,3.6-12.7c0,0-0.7-3.7-3-2.9c0,0-0.3-0.9-1.1-0.1s-20.1,21.1-31.9,22.9c0,0-1.8,0.6-2,2.7
			c-0.2,2-6.6,26.4-11.3,31.2c0,0-3.5,3.7-3.8,5.6c-0.3,2-3,7.9-3,7.9l-1.4,6.9l8.5,41.3L197.3,364.9z"/>
		<path id="XMLID_437_" class="st1" d="M196.8,340.7c0,0-5,8.6,5,27.8c0,0-16.8,9.8-20.2,18.5l-14.9-5.4L196.8,340.7z"/>
		<path id="XMLID_381_" class="st58" d="M186.1,390.5c0,0,0.3-3.2-1.6-4.3c-1.9-1.1-11.7-5.8-13.8-6.5l2.9,4.4
			C173.6,384.2,184.9,388.3,186.1,390.5z"/>
		<path id="XMLID_384_" class="st82" d="M210.4,405c0,0-7.2-10.5-25.3-18.3l0.8,4.1c0,0,9.6,3.4,21.5,14.4c0,0,2.6,3.5,3.1,2.1
			C211,406,210.4,405,210.4,405z"/>
		<path id="XMLID_383_" class="st59" d="M186.6,389.9c0,0-2.5-1.9-4.9-2.9l-9.2-3.8l-0.1,3.4l10.2,4.6c0,0,1.9,1,2.8,0.6
			c0,0,0.8-0.4,1.3-0.4C187.2,391.3,187.3,390.5,186.6,389.9z"/>
		<path id="XMLID_429_" class="st57" d="M160.1,307c0,0,2.4,17.2-2.1,25.1l-4.8-14.5C153.3,317.6,156.7,311.3,160.1,307z"/>
		<path id="XMLID_386_" class="st2" d="M170.4,399.2c0,0-13.3-3.6-30.6-14.1c0,0-2.1-1.6-1.8-4.4s0.8-6.5,0.8-6.5l3.5-3.6
			c0,0,1.9-2.6,3.2-5.4s9.1-17.1,12.1-30.9c3-13.8,1.6-28.7,1.6-28.7s0.3-4.3,2.4-5l13.7,12.7l20.1,8.9c0,0,3.3,2.5,2.2,7.1
			c-1.1,4.6-5.1,23.5-5.1,23.5l2.3,19l-7.3,0.8l-13.6,8l-1.4,2.6l-0.9,13.1L170.4,399.2z"/>
		<path id="XMLID_387_" class="st59" d="M170.4,399.2c0,0,2.4-1.2,2.7-4.7c0.4-3.5,0.7-11.3,0.7-11.3s0.5-1.7,3.4-3l8.4-5.1
			c0,0,2.2-1.4,4.3-1.6c2.1-0.2,5.1-0.5,5.1-0.5l0.6,0.6c0,0,2.4,1.2,1.9-1.5c-0.5-2.7-2.7-20-2.7-20s-0.6-1,0.3-4.7
			c0.8-3.7,4.6-16.5,4.6-16.5s0.6-1.7,0.7-3.7c0-2,0.1-5-1.8-5.7c-1.9-0.8-29.3-11.8-31.3-17.8c0,0,2.2-5,2.5-5.1
			c0.4-0.1-1.6-1.8-3.2-1.1c-1.6,0.7-4.3,2.6-4.3,2.6s-2.3,1.5-0.6,4.7s9.8,8.5,9.8,8.5s10.7,6.3,17.5,8.6l6.3,2.7
			c0,0,1.4,0.8,0.8,2.5c-0.6,1.8-5.5,25.7-5.5,25.7l1.8,16.8l-4.2,0.4l-15.9,9c0,0-0.6,0.2-0.8,3.3
			C171.1,385.3,170.4,399.2,170.4,399.2z"/>
		<path id="XMLID_389_" class="st59" d="M188.1,322.9l1,14.3l-9.8,8.5l-0.9-14.2C178.5,331.5,186.3,323.6,188.1,322.9z"/>
		<path id="XMLID_394_" class="st59" d="M175.4,316.8c0,0,0.2,11.2,0.6,13.2l-10.5,10.8c0,0-0.5-5.3-0.2-14.3
			C165.3,326.4,167.1,322.4,175.4,316.8z"/>
		<path id="XMLID_532_" class="st59" d="M165,311.4c0,0-0.6,10,0.2,13.8l-7.1,9.3c0,0-2-12-1.7-15
			C156.3,319.6,161.7,312.7,165,311.4z"/>
	</g>
</g>
</svg>
